<svg viewBox="0 0 100 100" xmlns="http://www.w3.org/2000/svg" style="display:none;">
    <symbol viewBox="0 0 512 512" id="icon-layer">
        <title>layer</title>
        <g>
            <g>
                <g>
                    <path d="M208.466,65.919c13.122-13.122,28.875-19.68,47.25-19.68c18.366,0,34.224,6.564,47.538,19.688
        c13.305,13.127,19.973,29.064,19.973,47.822c0,19.131-5.624,41.061-16.882,65.811c-11.248,24.757-22.496,44.816-33.757,60.2
        l-16.873,22.511c-1.874-2.247-4.319-5.448-7.313-9.561c-3.001-4.123-8.341-12.096-16.029-23.896
        c-7.685-11.817-14.439-23.451-20.249-34.882c-5.811-11.437-11.16-24.683-16.037-39.682c-4.875-14.998-7.312-28.503-7.312-40.499
        C188.775,94.991,195.333,79.054,208.466,65.919z M233.493,137.09c6.193,6.187,13.597,9.283,22.222,9.283
        c8.628,0,16.127-3.098,22.502-9.283c6.367-6.185,9.563-13.596,9.563-22.222s-3.194-16.128-9.563-22.507
        c-6.375-6.379-13.874-9.559-22.502-9.559c-8.625,0-16.03,3.188-22.222,9.559c-6.182,6.378-9.274,13.88-9.274,22.507
        C224.219,123.488,227.311,130.906,233.493,137.09z" />
                </g>
            </g>
        </g>
        <g>
            <polygon points="256.354,385.476 92.641,294.944 63.398,311.241 256,418.576 448.602,311.241 418.452,294.439   " />
        </g>
        <g>
            <polygon points="256.354,436.16 92.069,345.313 63.398,361.291 256,468.627 448.602,361.291 419.02,344.805   " />
        </g>
        <path d="M316.013,187.236c-10.046,21.895-20.092,40.707-30.144,56.435c8.979,4.446,14.625,10.846,14.625,17.971
  c0,13.429-20.014,24.314-44.704,24.314c-24.689,0-44.704-10.886-44.704-24.314c0-7.32,5.957-13.879,15.368-18.335
  c-8.951-13.857-16.854-27.509-23.674-40.927c-2.394-4.712-4.718-9.697-6.982-14.913L63.399,261.824l192.955,106.701l192.248-107.97
  L316.013,187.236z" />
    </symbol>
    <symbol viewBox="0 0 512 512" id="icon-locate">
        <title>locate</title>
        <circle cx="256.258" cy="256.152" r="51.044" />
        <path d="M413.621,244.041c-5.896-77.229-67.729-139.062-144.96-144.962V39h-24.226v60.078
  c-77.229,5.899-139.063,67.733-144.963,144.963H39.106v24.225h60.366c5.9,77.229,67.733,139.062,144.963,144.961v60.077h24.226
  v-60.077c77.229-5.897,139.062-67.729,144.96-144.961h59.789v-24.225H413.621z M256.258,388.5
  c-73.094,0-132.348-59.254-132.348-132.348c0-73.093,59.254-132.348,132.348-132.348c73.094,0,132.348,59.254,132.348,132.348
  C388.606,329.246,329.353,388.5,256.258,388.5z" />
    </symbol>
</svg>
