<?xml version="1.0" encoding="utf-8"?>
<!-- Generator: Adobe Illustrator 16.0.0, SVG Export Plug-In . SVG Version: 6.00 Build 0)  -->
<!DOCTYPE svg PUBLIC "-//W3C//DTD SVG 1.1//EN" "http://www.w3.org/Graphics/SVG/1.1/DTD/svg11.dtd">
<svg version="1.1" id="Ebene_1" xmlns="http://www.w3.org/2000/svg" xmlns:xlink="http://www.w3.org/1999/xlink" x="0px" y="0px"
	 width="20px" height="20px" viewBox="6 6 20 20" enable-background="new 6 6 20 20" xml:space="preserve">
<g>
	<path fill="#FFFFFF" d="M16,8.5c4.142,0,7.5,3.357,7.5,7.5c0,4.142-3.358,7.5-7.5,7.5c-4.143,0-7.5-3.358-7.5-7.5
		C8.5,11.857,11.857,8.5,16,8.5 M16,6C10.485,6,6,10.485,6,16c0,5.517,4.485,10,10,10c5.517,0,10-4.483,10-10
		C26,10.485,21.517,6,16,6L16,6z"/>
</g>
<g>
	<linearGradient id="SVGID_1_" gradientUnits="userSpaceOnUse" x1="9.2827" y1="9.2827" x2="22.7191" y2="22.7191">
		<stop  offset="0" style="stop-color:#C94030"/>
		<stop  offset="1" style="stop-color:#FB7564"/>
	</linearGradient>
	<circle fill="url(#SVGID_1_)" cx="16" cy="16" r="9.5"/>
	<linearGradient id="SVGID_2_" gradientUnits="userSpaceOnUse" x1="22.7197" y1="22.7197" x2="9.2833" y2="9.2833">
		<stop  offset="0" style="stop-color:#C94030"/>
		<stop  offset="1" style="stop-color:#FB7A6C"/>
	</linearGradient>
	<path fill="url(#SVGID_2_)" d="M16,7.5c4.688,0,8.501,3.813,8.501,8.5c0,4.688-3.813,8.501-8.501,8.501
		c-4.687,0-8.5-3.813-8.5-8.501C7.5,11.313,11.313,7.5,16,7.5 M16,6.5c-5.247,0-9.5,4.253-9.5,9.5c0,5.248,4.253,9.501,9.5,9.501
		c5.248,0,9.501-4.253,9.501-9.501C25.501,10.753,21.248,6.5,16,6.5L16,6.5z"/>
</g>
</svg>
