<?xml version="1.0" encoding="utf-8"?>
<!-- Generator: Adobe Illustrator 16.0.0, SVG Export Plug-In . SVG Version: 6.00 Build 0)  -->
<!DOCTYPE svg PUBLIC "-//W3C//DTD SVG 1.1//EN" "http://www.w3.org/Graphics/SVG/1.1/DTD/svg11.dtd">
<svg version="1.1" id="Ebene_1" xmlns="http://www.w3.org/2000/svg" xmlns:xlink="http://www.w3.org/1999/xlink" x="0px" y="0px"
	 width="512px" height="512px" viewBox="0 0 512 512" enable-background="new 0 0 512 512" xml:space="preserve">
<circle cx="256.258" cy="256.152" r="51.044"/>
<path d="M413.621,244.041c-5.896-77.229-67.729-139.062-144.96-144.962V39h-24.226v60.078
	c-77.229,5.899-139.063,67.733-144.963,144.963H39.106v24.225h60.366c5.9,77.229,67.733,139.062,144.963,144.961v60.077h24.226
	v-60.077c77.229-5.897,139.062-67.729,144.96-144.961h59.789v-24.225H413.621z M256.258,388.5
	c-73.094,0-132.348-59.254-132.348-132.348c0-73.093,59.254-132.348,132.348-132.348c73.094,0,132.348,59.254,132.348,132.348
	C388.606,329.246,329.353,388.5,256.258,388.5z"/>
</svg>
