<?xml version="1.0" encoding="utf-8"?>
<!-- Generator: Adobe Illustrator 16.0.0, SVG Export Plug-In . SVG Version: 6.00 Build 0)  -->
<!DOCTYPE svg PUBLIC "-//W3C//DTD SVG 1.1//EN" "http://www.w3.org/Graphics/SVG/1.1/DTD/svg11.dtd">
<svg version="1.1" id="Ebene_1" xmlns="http://www.w3.org/2000/svg" xmlns:xlink="http://www.w3.org/1999/xlink" x="0px" y="0px"
	 width="32px" height="32px" viewBox="0 0 32 32" enable-background="new 0 0 32 32" xml:space="preserve">
<circle fill="#0C4154" cx="9" cy="10" r="4"/>
<circle fill="#0C4154" cx="23" cy="10" r="4"/>
<polygon fill="#0C4154" points="11,16 13,20 13,25 5,25 5,20 7,16 "/>
<rect x="5" y="26" fill="#0C4154" width="2" height="4"/>
<rect x="11" y="26" fill="#0C4154" width="2" height="4"/>
<polygon fill="#0C4154" points="25,15 27,22 27,27 19,27 19,22 21,15 "/>
<rect x="19" y="28" fill="#0C4154" width="2" height="2"/>
<rect x="25" y="28" fill="#0C4154" width="2" height="2"/>
<rect x="19" y="5" fill="#0C4154" width="2" height="2"/>
<rect x="17" y="3" fill="#0C4154" width="2" height="2"/>
<rect x="27" y="3" fill="#0C4154" width="2" height="2"/>
<rect x="25" y="5" fill="#0C4154" width="2" height="2"/>
</svg>
