<?xml version="1.0" encoding="utf-8"?>
<!-- Generator: Adobe Illustrator 16.0.0, SVG Export Plug-In . SVG Version: 6.00 Build 0)  -->
<!DOCTYPE svg PUBLIC "-//W3C//DTD SVG 1.1//EN" "http://www.w3.org/Graphics/SVG/1.1/DTD/svg11.dtd">
<svg version="1.1" id="Ebene_1" xmlns="http://www.w3.org/2000/svg" xmlns:xlink="http://www.w3.org/1999/xlink" x="0px" y="0px"
	 width="36px" height="50px" viewBox="0 0 36 50" enable-background="new 0 0 36 50" xml:space="preserve">
<g>
	<rect fill="#BF52AA" width="36" height="36"/>
</g>
<polygon fill="#912A7D" points="14,50 0,36 14,36 "/>
<g>
	<path d="M-22.374,15.758c0.794-0.226,1.382-0.96,1.382-1.829c0-1.049-0.857-1.903-1.904-1.903c-1.055,0-1.905,0.854-1.905,1.903
		c0,0.868,0.583,1.603,1.377,1.829c-0.953,0.237-1.663,1.097-1.663,2.123v2.947h0.518h0.286V25h1.031v-4.172h0.705V25h1.035v-4.172
		h0.287h0.513V17.88C-20.713,16.855-21.421,15.995-22.374,15.758z M-22.896,14.804c-0.486,0-0.874-0.392-0.874-0.873
		c0-0.484,0.388-0.873,0.874-0.873c0.48,0,0.874,0.389,0.874,0.873C-22.022,14.412-22.416,14.804-22.896,14.804z"/>
	<path d="M-14.813,19.199v-1.626c0-0.847-0.573-1.555-1.356-1.775c0.812-0.221,1.404-0.958,1.404-1.832
		c0-1.046-0.85-1.899-1.897-1.899c-1.05,0-1.902,0.853-1.902,1.899c0,0.297,0.073,0.577,0.193,0.829
		c-0.058-0.033-0.133-0.055-0.227-0.059c-0.461-0.014-0.709,0.706-0.828,0.897c0.332,0.191,1.278,0.213,1.278-0.445
		c0-0.009,0-0.023,0-0.041c0.248,0.313,0.59,0.543,0.987,0.651c-0.781,0.221-1.354,0.929-1.354,1.775v1.614l-0.814,3.145h1.284V25
		h1.027v-2.668h0.704V25h1.032v-2.668H-14L-14.813,19.199z M-17.527,14.012c0.238-0.1,0.556-0.266,0.823-0.527
		c0.24,0.197,0.551,0.362,0.9,0.406c0,0.025,0.008,0.05,0.008,0.075c0,0.479-0.388,0.869-0.867,0.869
		C-17.127,14.835-17.503,14.467-17.527,14.012z M-17.994,21.301l0.491-1.89l0.017-1.835c0-0.453,0.371-0.822,0.823-0.822
		s0.82,0.369,0.82,0.822v1.675l0.508,2.05H-17.994z"/>
	<path d="M-38.271,17.575c0-0.849-0.575-1.557-1.352-1.777c0.806-0.218,1.401-0.958,1.401-1.832c0-1.046-0.852-1.899-1.9-1.899
		c-1.047,0-1.9,0.853-1.9,1.899c0,0.297,0.072,0.577,0.193,0.829c-0.059-0.033-0.13-0.055-0.227-0.056
		c-0.462-0.017-0.709,0.703-0.828,0.894c0.333,0.193,1.278,0.213,1.278-0.445c0-0.009,0-0.023-0.001-0.041
		c0.247,0.313,0.592,0.544,0.987,0.651c-0.778,0.221-1.354,0.929-1.354,1.777v1.612l-0.812,3.145h1.282V25h1.031v-2.668h0.702V25
		h1.032v-2.668h1.28l-0.812-3.133v-1.624H-38.271z M-40.123,14.835c-0.463,0-0.839-0.368-0.863-0.823
		c0.241-0.1,0.556-0.266,0.826-0.527c0.237,0.197,0.547,0.362,0.898,0.406c0.001,0.025,0.007,0.05,0.007,0.075
		C-39.254,14.445-39.643,14.835-40.123,14.835z"/>
	<path d="M-27.694,12.646V9.113c0-2.075-1.688-3.765-3.766-3.765c-2.077,0-3.765,1.69-3.765,3.765v3.533h0.987l-1.356,7.13h2.608V25
		h1.031v-5.224h1.035V25h1.03v-5.224h2.563l-1.357-7.13H-27.694z M-31.46,6.381c0.174,0,0.345,0.018,0.512,0.05
		c-0.026,0.26-0.241,0.465-0.511,0.465c-0.268,0-0.484-0.205-0.511-0.465C-31.804,6.398-31.634,6.381-31.46,6.381z M-28.727,12.62
		h-5.465V9.113c0-0.963,0.501-1.81,1.255-2.296c0.19,0.639,0.773,1.11,1.477,1.11c0.701,0,1.288-0.471,1.476-1.11
		c0.756,0.486,1.257,1.334,1.257,2.296V12.62L-28.727,12.62z"/>
	<path d="M-26.348,2.494C-26.682,2.02-27.243,1.23-28.07,1.23c-0.076,0-0.154,0.007-0.231,0.022
		c-0.042,0.007-0.08,0.022-0.121,0.034c-0.35-1.372-1.596-2.391-3.076-2.391c-1.755,0-3.182,1.427-3.182,3.181
		c0,1.753,1.426,3.181,3.182,3.181c1.181,0,2.213-0.647,2.76-1.607c0.253,0.162,0.576,0.255,0.955,0.255
		c0.552,0,1.159-0.192,1.512-0.48l0.414-0.336l-0.349-0.403C-26.243,2.642-26.289,2.573-26.348,2.494z M-30.809,0.042
		c0.392,0.132,0.734,0.375,0.988,0.691c-0.458-0.05-0.898-0.182-1.179-0.305C-30.921,0.283-30.859,0.155-30.809,0.042z
		 M-33.646,2.075c0-1.043,0.747-1.913,1.732-2.108c-0.441,0.838-1.092,1.747-1.732,2.137C-33.646,2.094-33.646,2.085-33.646,2.075z
		 M-31.498,4.223c-0.804,0-1.508-0.443-1.872-1.1c0.743-0.35,1.375-1.09,1.845-1.805c0.542,0.267,1.329,0.462,2.055,0.462
		c0.032,0,0.064-0.002,0.097-0.003c0.016,0.098,0.025,0.196,0.025,0.298C-29.348,3.26-30.314,4.223-31.498,4.223z M-27.783,2.87
		c-0.49,0-0.527-0.229-0.542-0.325c-0.034-0.233,0.126-0.263,0.214-0.279c0.015-0.004,0.026-0.005,0.04-0.005
		c0.212,0,0.483,0.3,0.684,0.561C-27.508,2.851-27.644,2.87-27.783,2.87z"/>
</g>
<circle fill="#FFFFFF" cx="14.5" cy="7.5" r="2.5"/>
<circle fill="#FFFFFF" cx="23" cy="19" r="2"/>
<polygon fill="#FFFFFF" points="24,22 25,24 25,27 21,27 21,24 22,22 "/>
<circle fill="#FFFFFF" cx="6" cy="19" r="2"/>
<polygon fill="#FFFFFF" points="7,22 8,26 8,28 4,28 4,26 5,22 "/>
<polygon fill="#FFFFFF" points="17,11 18,13 18,18 19,25 10,25 11,18 11,13 12,11 "/>
<rect x="13" y="26" fill="#FFFFFF" width="1" height="4"/>
<rect x="15" y="26" fill="#FFFFFF" width="1" height="4"/>
<rect x="21" y="28" fill="#FFFFFF" width="1" height="2"/>
<rect x="24" y="28" fill="#FFFFFF" width="1" height="2"/>
<rect x="4" y="29" fill="#FFFFFF" width="1" height="1"/>
<rect x="7" y="29" fill="#FFFFFF" width="1" height="1"/>
<rect x="4" y="17" fill="#FFFFFF" width="1" height="1"/>
<rect x="3" y="16" fill="#FFFFFF" width="1" height="1"/>
<rect x="7" y="17" fill="#FFFFFF" width="1" height="1"/>
<rect x="8" y="16" fill="#FFFFFF" width="1" height="1"/>
<circle fill="#FFFFFF" cx="30" cy="19" r="2"/>
<polygon fill="#FFFFFF" points="31,22 32,26 32,28 28,28 28,26 29,22 "/>
<rect x="28" y="29" fill="#FFFFFF" width="1" height="1"/>
<rect x="31" y="29" fill="#FFFFFF" width="1" height="1"/>
<rect x="28" y="17" fill="#FFFFFF" width="1" height="1"/>
<rect x="27" y="16" fill="#FFFFFF" width="1" height="1"/>
<rect x="31" y="17" fill="#FFFFFF" width="1" height="1"/>
<rect x="32" y="16" fill="#FFFFFF" width="1" height="1"/>
</svg>
