<?xml version="1.0" encoding="utf-8"?>
<!-- Generator: Adobe Illustrator 16.0.0, SVG Export Plug-In . SVG Version: 6.00 Build 0)  -->
<!DOCTYPE svg PUBLIC "-//W3C//DTD SVG 1.1//EN" "http://www.w3.org/Graphics/SVG/1.1/DTD/svg11.dtd">
<svg version="1.1" id="Ebene_1" xmlns="http://www.w3.org/2000/svg" xmlns:xlink="http://www.w3.org/1999/xlink" x="0px" y="0px"
	 width="32px" height="32px" viewBox="0 0 32 32" enable-background="new 0 0 32 32" xml:space="preserve">
<path opacity="0.4" fill="#2AACDD" enable-background="new    " d="M16,0C7.164,0,0,7.164,0,16c0,8.838,7.164,16,16,16
	s16-7.162,16-16C32,7.164,24.836,0,16,0z M15.999,17.999c-1.104,0-2-0.896-2-2c0-1.105,0.896-2,2-2c1.104,0,2,0.895,2,2
	C17.999,17.104,17.104,17.999,15.999,17.999z"/>
<circle fill="#1A8FC5" cx="16.001" cy="15.999" r="3"/>
<g>
	<path fill="#FFFFFF" d="M16.001,12.999c1.657,0,3,1.343,3,3c0,1.657-1.343,3-3,3c-1.657,0-3-1.343-3-3
		C13.001,14.342,14.344,12.999,16.001,12.999 M16.001,11.999c-2.206,0-4,1.794-4,4c0,2.206,1.794,4,4,4c2.206,0,4-1.794,4-4
		C20.001,13.793,18.207,11.999,16.001,11.999L16.001,11.999z"/>
</g>
</svg>
