<?xml version="1.0" encoding="utf-8"?>
<!-- Generator: Adobe Illustrator 16.0.0, SVG Export Plug-In . SVG Version: 6.00 Build 0)  -->
<!DOCTYPE svg PUBLIC "-//W3C//DTD SVG 1.1//EN" "http://www.w3.org/Graphics/SVG/1.1/DTD/svg11.dtd">
<svg version="1.1" id="Ebene_1" xmlns="http://www.w3.org/2000/svg" xmlns:xlink="http://www.w3.org/1999/xlink" x="0px" y="0px"
	 width="20px" height="30px" viewBox="0 0 20 30" enable-background="new 0 0 20 30" xml:space="preserve">
<g>
	<path fill="#FB4F3B" d="M3.636,3.175C5.393,1.418,7.502,0.54,9.962,0.54c2.459,0,4.582,0.879,6.364,2.636
		C18.108,4.933,19,7.067,19,9.578c0,2.561-0.753,5.497-2.26,8.811c-1.506,3.314-3.012,6-4.519,8.059l-2.259,3.014
		c-0.251-0.301-0.578-0.729-0.979-1.281c-0.402-0.551-1.117-1.619-2.146-3.199c-1.029-1.582-1.933-3.139-2.711-4.67
		S2.632,17.008,1.979,15C1.326,12.992,1,11.184,1,9.578C1,7.067,1.878,4.933,3.636,3.175z M6.987,12.703
		c0.829,0.828,1.82,1.243,2.975,1.243s2.159-0.415,3.012-1.243s1.281-1.82,1.281-2.975c0-1.155-0.428-2.159-1.281-3.013
		s-1.857-1.28-3.012-1.28s-2.146,0.427-2.975,1.28C6.159,7.569,5.745,8.573,5.745,9.728C5.745,10.882,6.159,11.875,6.987,12.703z"/>
</g>
</svg>
