<?xml version="1.0" encoding="utf-8"?>
<!-- Generator: Adobe Illustrator 16.0.0, SVG Export Plug-In . SVG Version: 6.00 Build 0)  -->
<!DOCTYPE svg PUBLIC "-//W3C//DTD SVG 1.1//EN" "http://www.w3.org/Graphics/SVG/1.1/DTD/svg11.dtd">
<svg version="1.1" id="Ebene_1" xmlns="http://www.w3.org/2000/svg" xmlns:xlink="http://www.w3.org/1999/xlink" x="0px" y="0px"
	 width="36px" height="50px" viewBox="0 0 36 50" enable-background="new 0 0 36 50" xml:space="preserve">
<g>
	<rect fill="#69BD44" width="36" height="36"/>
</g>
<polygon fill="#4F9E2C" points="14,50 0,36 14,36 "/>
<circle fill="#FFFFFF" cx="10.5" cy="17.5" r="2.5"/>
<polygon fill="#FFFFFF" points="19,17 16,17 12,21 12,23 17,28 18,28 22,24 28,24 29,23 29,22 28,21 22,21 19,24 16,20.965 
	19,17.923 "/>
<polygon fill="#FFFFFF" points="23,25 21,27 21,28 22,28 24,26 24,25 "/>
<polygon fill="#FFFFFF" points="8,9 15,17 16,17 16,16 9,8 8,8 "/>
<polygon fill="#FFFFFF" points="18,20 20,22 21,22 21,21 19,19 18,19 "/>
</svg>
