<?xml version="1.0" encoding="utf-8"?>
<!-- Generator: Adobe Illustrator 16.0.0, SVG Export Plug-In . SVG Version: 6.00 Build 0)  -->
<!DOCTYPE svg PUBLIC "-//W3C//DTD SVG 1.1//EN" "http://www.w3.org/Graphics/SVG/1.1/DTD/svg11.dtd">
<svg version="1.1" id="Ebene_1" xmlns="http://www.w3.org/2000/svg" xmlns:xlink="http://www.w3.org/1999/xlink" x="0px" y="0px"
	 width="36px" height="50px" viewBox="-3.5 3.5 36 50" enable-background="new -3.5 3.5 36 50" xml:space="preserve">
<g>
	<rect x="-3.5" y="3.5" fill="#69BD44" width="36" height="36"/>
</g>
<polygon fill="#4F9E2C" points="10.5,53.5 -3.5,39.5 10.5,39.5 "/>
<circle fill="#FFFFFF" cx="14" cy="15" r="2.5"/>
<polygon fill="#FFFFFF" points="16.5,19.5 17.5,21.5 17.5,26.5 10.5,26.5 10.5,21.5 11.5,19.5 "/>
<polygon fill="#FFFFFF" points="13.5,32.5 12.5,33.5 11.5,32.5 11.5,27.5 13.5,27.5 "/>
<polygon fill="#FFFFFF" points="16.5,32.5 15.5,33.5 14.5,32.5 14.5,27.5 16.5,27.5 "/>
<rect x="8.5" y="9.5" fill="#FFFFFF" width="1" height="17"/>
<rect x="18.5" y="9.5" fill="#FFFFFF" width="1" height="17"/>
<polygon fill="#FFFFFF" points="10.5,29.5 9.5,29.5 8.5,28.5 8.5,27.5 10.5,27.5 "/>
<polygon fill="#FFFFFF" points="19.5,28.5 18.5,29.5 17.5,29.5 17.5,27.5 19.5,27.5 "/>
</svg>
