<?xml version="1.0" encoding="utf-8"?>
<!-- Generator: Adobe Illustrator 16.0.0, SVG Export Plug-In . SVG Version: 6.00 Build 0)  -->
<!DOCTYPE svg PUBLIC "-//W3C//DTD SVG 1.1//EN" "http://www.w3.org/Graphics/SVG/1.1/DTD/svg11.dtd">
<svg version="1.1" id="Ebene_1" xmlns="http://www.w3.org/2000/svg" xmlns:xlink="http://www.w3.org/1999/xlink" x="0px" y="0px"
	 width="36px" height="50px" viewBox="0 0 36 50" enable-background="new 0 0 36 50" xml:space="preserve">
<g>
	<rect x="-3.5" y="3.5" fill="#2AACDD" width="36" height="36"/>
</g>
<polygon fill="#1A8FC5" points="10.5,53.5 -3.5,39.5 10.5,39.5 "/>
<circle fill="#FFFFFF" cx="7" cy="21" r="2.5"/>
<polygon fill="#FFFFFF" points="15.5,20.5 12.5,20.5 8.5,24.5 8.5,26.5 13.5,31.5 14.5,31.5 18.5,27.5 24.5,27.5 25.5,26.5 
	25.5,25.5 24.5,24.5 18.5,24.5 15.5,27.5 12.5,24.465 15.5,21.423 "/>
<polygon fill="#FFFFFF" points="19.5,28.5 17.5,30.5 17.5,31.5 18.5,31.5 20.5,29.5 20.5,28.5 "/>
<polygon fill="#FFFFFF" points="4.5,12.5 11.5,20.5 12.5,20.5 12.5,19.5 5.5,11.5 4.5,11.5 "/>
<polygon fill="#FFFFFF" points="14.5,23.5 16.5,25.5 17.5,25.5 17.5,24.5 15.5,22.5 14.5,22.5 "/>
</svg>
