<?xml version="1.0" encoding="utf-8"?>
<!-- Generator: Adobe Illustrator 16.0.0, SVG Export Plug-In . SVG Version: 6.00 Build 0)  -->
<!DOCTYPE svg PUBLIC "-//W3C//DTD SVG 1.1//EN" "http://www.w3.org/Graphics/SVG/1.1/DTD/svg11.dtd">
<svg version="1.1" id="Ebene_1" xmlns="http://www.w3.org/2000/svg" xmlns:xlink="http://www.w3.org/1999/xlink" x="0px" y="0px"
	 width="36px" height="50px" viewBox="-3.5 1.5 36 50" enable-background="new -3.5 1.5 36 50" xml:space="preserve">
<g>
	<rect x="-3.5" y="1.5" fill="#FB4F3B" width="36" height="36"/>
</g>
<polygon fill="#DB331F" points="10.5,51.5 -3.5,37.5 10.5,37.5 "/>
<g>
	<rect x="17.5" y="8.5" fill="#FFFFFF" width="1" height="1"/>
	<rect x="21.5" y="8.5" fill="#FFFFFF" width="1" height="1"/>
	<g>
		<polygon fill="#FFFFFF" points="14.5,21.5 3.5,21.5 3.5,29.5 4.5,30.5 5.5,30.5 5.5,27.5 14.5,27.5 23.5,27.5 23.5,30.5 
			24.5,30.5 25.5,29.5 25.5,21.5 		"/>
	</g>
	<polygon fill="#FFFFFF" points="3.5,20.5 25.5,20.5 25.5,19.5 24.5,18.5 4.5,18.5 3.5,19.5 	"/>
	<circle fill="#FFFFFF" cx="9" cy="11" r="2.5"/>
	<polygon fill="#FFFFFF" points="11.5,14.5 12.5,16.5 5.5,16.5 6.5,14.5 	"/>
	<circle fill="#FFFFFF" cx="20" cy="11" r="2.5"/>
	<polygon fill="#FFFFFF" points="22.5,14.5 23.5,16.5 16.5,16.5 17.5,14.5 	"/>
	<rect x="16.5" y="7.5" fill="#FFFFFF" width="1" height="1"/>
	<rect x="22.5" y="7.5" fill="#FFFFFF" width="1" height="1"/>
</g>
</svg>
